# Blender 5.1.0
# www.blender.org
mtllib Dado emociones.mtl
o Cube
v 1.000000 1.000000 -1.000000
v 1.000000 -1.000000 -1.000000
v 1.000000 1.000000 1.000000
v 1.000000 -1.000000 1.000000
v -1.000000 1.000000 -1.000000
v -1.000000 -1.000000 -1.000000
v -1.000000 1.000000 1.000000
v -1.000000 -1.000000 1.000000
vn -0.0000 1.0000 -0.0000
vn -0.0000 -0.0000 1.0000
vn -1.0000 -0.0000 -0.0000
vn -0.0000 -1.0000 -0.0000
vn 1.0000 -0.0000 -0.0000
vn -0.0000 -0.0000 -1.0000
vt 0.667969 0.500000
vt 0.992188 0.500000
vt 0.992188 0.750000
vt 0.667969 0.750000
vt 0.664062 0.744141
vt 0.664062 0.986328
vt 0.335938 0.986328
vt 0.335938 0.744141
vt 0.666992 0.006836
vt 0.666992 0.249023
vt 0.336914 0.249023
vt 0.336914 0.006836
vt 0.003906 0.500000
vt 0.335938 0.500000
vt 0.335938 0.750000
vt 0.003906 0.750000
vt 0.662109 0.500000
vt 0.662109 0.750000
vt 0.662109 0.250000
vt 0.337891 0.500000
vt 0.337891 0.250000
s 0
g off
g Cube_Material
usemtl Material
f 1/1/1 5/2/1 7/3/1 3/4/1
f 4/5/2 3/6/2 7/7/2 8/8/2
f 8/9/3 7/10/3 5/11/3 6/12/3
f 6/13/4 2/14/4 4/15/4 8/16/4
f 2/17/5 1/18/5 3/15/5 4/14/5
f 6/19/6 5/17/6 1/20/6 2/21/6
