# Blender 5.0.1
# www.blender.org
mtllib Dado Emociones Final.mtl
g Cube_Cube
v 1.000000 1.000000 -1.000000
v 1.000000 -1.000000 -1.000000
v 1.000000 1.000000 1.000000
v 1.000000 -1.000000 1.000000
v -1.000000 1.000000 -1.000000
v -1.000000 -1.000000 -1.000000
v -1.000000 1.000000 1.000000
v -1.000000 -1.000000 1.000000
vn -0.0000 1.0000 -0.0000
vn -0.0000 -0.0000 1.0000
vn -1.0000 -0.0000 -0.0000
vn -0.0000 -1.0000 -0.0000
vn 1.0000 -0.0000 -0.0000
vn -0.0000 -0.0000 -1.0000
vt 0.499500 0.500000
vt 0.749500 0.500000
vt 0.749500 0.750000
vt 0.499500 0.750000
vt 0.499500 1.000000
vt 0.249500 1.000000
vt 0.249500 0.750000
vt 0.499500 -0.000000
vt 0.499500 0.250000
vt 0.249500 0.250000
vt 0.249500 0.000000
vt -0.000500 0.500000
vt 0.249500 0.500000
vt 0.249500 0.750000
vt -0.000500 0.750000
vt 0.249500 0.500000
vt 0.499500 0.250000
vt 0.249500 0.250000
s 0
g off
g Cube_Material
usemtl Material
f 1/1/1 5/2/1 7/3/1 3/4/1
f 4/4/2 3/5/2 7/6/2 8/7/2
f 8/8/3 7/9/3 5/10/3 6/11/3
f 6/12/4 2/13/4 4/14/4 8/15/4
f 2/1/5 1/4/5 3/14/5 4/16/5
f 6/17/6 5/1/6 1/13/6 2/18/6
